PathFileType	4	(X/Y/Z)	/Users/niels/Desktop/University/Third Semester/Perception and Action/Exam/Gymnastics Motion Tracking/Analyzed Videos/7Nov24/Kraftspring/Sequence 01_Sports2D/Sequence 01_Sports2D_px_person00.trc
DataRate	CameraRate	NumFrames	NumMarkers	Units	OrigDataRate	OrigDataStartFrame	OrigNumFrames
49.85207100591716	49.85207100591716	9	22	m	49.85207100591716	0	338
Frame#	Time	Hip			RHip			RKnee			RAnkle			RBigToe			RSmallToe			RHeel			LHip			LKnee			LAnkle			LBigToe			LSmallToe			LHeel			Neck			Head			Nose			RShoulder			RElbow			RWrist			LShoulder			LElbow			LWrist		
		X1	Y1	Z1	X2	Y2	Z2	X3	Y3	Z3	X4	Y4	Z4	X5	Y5	Z5	X6	Y6	Z6	X7	Y7	Z7	X8	Y8	Z8	X9	Y9	Z9	X10	Y10	Z10	X11	Y11	Z11	X12	Y12	Z12	X13	Y13	Z13	X14	Y14	Z14	X15	Y15	Z15	X16	Y16	Z16	X17	Y17	Z17	X18	Y18	Z18	X19	Y19	Z19	X20	Y20	Z20	X21	Y21	Z21	X22	Y22	Z22
0	0.0	-0.00024101739904195565	-0.48823517536681277	0.0	0.003408025450903471	-0.5214163110528107	0.0	0.0010146245089136913	-0.4359169863424767	0.0	0.03932198781439345	-0.5034799560923585	0.0	0.015071936414775479	-0.6771211928266399	0.0	0.0490750720457439	-0.5487604448649209	0.0	-0.017735612183259954	-0.761749695596839	0.0	-0.004315468973989155	-0.5024679360215071	0.0	0.0013389047375532758	-0.4355849011387128	0.0	0.03805245369164274	-0.5015361064010277	0.0	0.02047088448323785	-0.7758844365226165	0.0	0.019147954025161725	-0.6771211855933545	0.0	-0.021554348134381087	-0.6771228675682281	0.0	-0.014460209363486989	-0.2849819478817151	0.0	-0.0032661934128879	-0.2321445434307823	0.0	0.0028382949498686233	-0.26975645828200734	0.0	-0.0022790543219847153	-0.3317412133543059	0.0	0.0019916581480809697	-0.43803925271641264	0.0	0.03660989825676885	-0.502649204141882	0.0	-0.01037479562119424	-0.33581313643978217	0.0	0.001991706659622423	-0.43899290386932116	0.0	0.03536255257015948	-0.5019940024773262	0.0
1	0.0200593471810089	-0.00019730077249812642	-0.4882276097570922	0.0	0.0034158960377418915	-0.5214278152790589	0.0	0.000951895392078429	-0.4353911263676665	0.0	0.039535010928746124	-0.5026498703079834	0.0	0.015061041151353942	-0.6768982720835679	0.0	0.04928384322962003	-0.5480244679719397	0.0	-0.017712051986893063	-0.7617719700833745	0.0	-0.004277309069632151	-0.5024816982652897	0.0	0.0012828172511984296	-0.43505908681799665	0.0	0.03826986492942954	-0.5006929973302303	0.0	0.02047122686712332	-0.7758954059627783	0.0	0.019163523224107706	-0.6769098981656304	0.0	-0.021534607187141997	-0.6769277979364318	0.0	-0.014450479850382461	-0.28494281816213934	0.0	-0.00328256229007321	-0.2321531105828146	0.0	0.002823469839481177	-0.26974737658169795	0.0	-0.002274725442954347	-0.3317474246819682	0.0	0.0019195038501537537	-0.438096309329507	0.0	0.036448536298564746	-0.5026519537793981	0.0	-0.01037553107808736	-0.335811223466392	0.0	0.0019296582279141996	-0.43905385040946804	0.0	0.03522381753170827	-0.502002513101905	0.0
2	0.0401186943620178	-0.00013541785248196643	-0.4882180667199697	0.0	0.0034290506059705024	-0.5214523146035488	0.0	0.0008593712598675216	-0.4347355155824702	0.0	0.039796535410083295	-0.5015979491763982	0.0	0.015027063419853073	-0.676588091058331	0.0	0.049520162088392966	-0.5470718476081593	0.0	-0.017686531934098273	-0.7618078824591594	0.0	-0.0042220329873663125	-0.5025034065344499	0.0	0.0011998787180614158	-0.43440549652088184	0.0	0.03853467255601492	-0.49962382852773146	0.0	0.020454003074088394	-0.7759143932870426	0.0	0.019167508050175277	-0.6766173306555303	0.0	-0.02151426466212213	-0.6766594638382732	0.0	-0.01444158989938825	-0.2848866580249679	0.0	-0.0033161128943724368	-0.2321678631016872	0.0	0.0027909128293722328	-0.2697332819406776	0.0	-0.0022714163460565953	-0.33175754630708787	0.0	0.0018105061448483524	-0.4381646502814825	0.0	0.036230497581826504	-0.502652019217139	0.0	-0.010386371569425455	-0.33580771976770607	0.0	0.001835950987038501	-0.4391303157223841	0.0	0.0350324614607728	-0.502013500164319	0.0
3	0.0601780415430267	-5.4332778500303604e-05	-0.48820696646714695	0.0	0.00344871040798478	-0.5214943034070888	0.0	0.0007336497089753695	-0.43398331547446267	0.0	0.040091041114880925	-0.50036779195115	0.0	0.014960208911889525	-0.6761881294104142	0.0	0.04975854685627646	-0.5459309827795957	0.0	-0.017662518177087822	-0.7618602124996442	0.0	-0.004148089502052594	-0.5025345315568366	0.0	0.0010869387043139643	-0.43365829801278083	0.0	0.03882995535744473	-0.4983725009127829	0.0	0.0204101201338909	-0.7759434364270852	0.0	0.019150998689216783	-0.67624182735596	0.0	-0.021496759620187232	-0.6763172498214841	0.0	-0.014435818348629755	-0.2848121444606212	0.0	-0.00337256762602443	-0.23219035324024395	0.0	0.0027343256468472196	-0.26971332236067597	0.0	-0.0022704730672583736	-0.33177240853630213	0.0	0.0016594297477793801	-0.4382392416427181	0.0	0.03595729162754002	-0.5026474988606461	0.0	-0.010412370834853829	-0.33580217102472454	0.0	0.0017060954130115609	-0.4392187035387054	0.0	0.034787782079691756	-0.5020266204832721	0.0
4	0.0802373887240356	4.407342561759549e-05	-0.48819532063029447	0.0	0.0034757210712028546	-0.5215581185188185	0.0	0.000575236917797695	-0.4332093664787348	0.0	0.04038582246776136	-0.4990675254131817	0.0	0.014850032326042236	-0.6757111397029565	0.0	0.04995518916021143	-0.5446860022166535	0.0	-0.017645630382568847	-0.7619305791768384	0.0	-0.004056380019736285	-0.5025757912054681	0.0	0.0009443258804142533	-0.4328934802091391	0.0	0.03912109642518335	-0.4970484000587284	0.0	0.02032914714461199	-0.7759840983246048	0.0	0.019102705754821623	-0.6757963143659689	0.0	-0.021487412815482332	-0.6759141349345404	0.0	-0.014436455813760336	-0.2847205080964082	0.0	-0.003457327542023633	-0.2322217565936654	0.0	0.002647539860440185	-0.2696871597800777	0.0	-0.002273739797111081	-0.3317925259515047	0.0	0.0014653442513974325	-0.43831031977560614	0.0	0.03564196503957929	-0.5026360234619726	0.0	-0.01045926127889471	-0.33579419145852246	0.0	0.0015393057293359876	-0.4393106227555264	0.0	0.034498707396588404	-0.5020408842988378	0.0
5	0.10029673590504451	0.0001533070681221131	-0.48818495642937965	0.0	0.0035101276687943494	-0.5216470048909808	0.0	0.0003912024411413644	-0.4325453120484866	0.0	0.040625103007229456	-0.49789468891085475	0.0	0.014686962452777848	-0.6751934752991344	0.0	0.05004337349425501	-0.5435000139590642	0.0	-0.017644090386836394	-0.7620183162768813	0.0	-0.003951813615837504	-0.5026264843275575	0.0	0.000778234248455871	-0.43224385926649345	0.0	0.039349901480222	-0.49585171586114	0.0	0.02020035414846082	-0.7760368358705918	0.0	0.019009429047277666	-0.6753161081355455	0.0	-0.021493740794586328	-0.6754837963413461	0.0	-0.014447891995383117	-0.2846170968140467	0.0	-0.003574220686420928	-0.232262383792033	0.0	0.002525779470610165	-0.2696553959764061	0.0	-0.0022835593289740274	-0.33181777749501157	0.0	0.0012348306028147084	-0.4383619163461612	0.0	0.03531474425894994	-0.5026148768317075	0.0	-0.010532843204784315	-0.3357835853177953	0.0	0.0013412558420297148	-0.4393911060072153	0.0	0.034188878436947255	-0.5020543881300382	0.0
6	0.1203560830860534	0.0002602483067721041	-0.4881787437564991	0.0	0.0035506027225836005	-0.521761731001074	0.0	0.0001984562834114112	-0.43219458196240645	0.0	0.040724388178086254	-0.4971616569041868	0.0	0.014464734666340313	-0.6747047984145079	0.0	0.049930022271968674	-0.5426397223679238	0.0	-0.01766899254246725	-0.7621189905555263	0.0	-0.00384519558587993	-0.5026836251469975	0.0	0.000603675165835315	-0.43191385627575973	0.0	0.039429054269877126	-0.49509934135223627	0.0	0.020014538962023914	-0.7761001347041063	0.0	0.01885721903857687	-0.6748679684702639	0.0	-0.02152557414458355	-0.6750887825647492	0.0	-0.014475555749918795	-0.2845132581109176	0.0	-0.003723668151268036	-0.23231101274856947	0.0	0.002367547743233853	-0.26962011977541284	0.0	-0.002302679152428822	-0.33184698208469865	0.0	0.000986018147141784	-0.43837052331500953	0.0	0.03502938779644584	-0.5025812673836323	0.0	-0.010637931292271573	-0.3357705177899359	0.0	0.001127548425292286	-0.4394368230888836	0.0	0.033902515681241585	-0.502064033103849	0.0
7	0.1404154302670623	0.0003429786694031173	-0.4881807841105182	0.0	0.0035937322358818137	-0.521898699969639	0.0	2.7463995246786474e-05	-0.4324442909007607	0.0	0.04056629629281796	-0.4973171503078093	0.0	0.014183907606780562	-0.6743582964157043	0.0	0.04949481464592099	-0.5424977009156109	0.0	-0.017734218930146102	-0.7622225922052166	0.0	-0.0037553256573573043	-0.5027409022336568	0.0	0.0004478328749530955	-0.4321910799516748	0.0	0.039238199032816175	-0.495246840834285	0.0	0.019766849669774572	-0.7761694093566055	0.0	0.018633498099317435	-0.6745595529563616	0.0	-0.021594819595983177	-0.6748289573126837	0.0	-0.014525615676003065	-0.28442840713440465	0.0	-0.0039002062726049584	-0.23236404195541432	0.0	0.0021772193797439054	-0.2695855570445109	0.0	-0.0023340146140669953	-0.3318773768103716	0.0	0.0007532702796595937	-0.43830424990646466	0.0	0.0348695411770037	-0.5025328051112098	0.0	-0.010776746736184038	-0.3357557376693975	0.0	0.0009277404019946841	-0.43941462482903654	0.0	0.033710506922582095	-0.5020652720114439	0.0
8	0.1604747774480712	0.00036875016497559004	-0.48819649865945886	0.0	0.0036331953978755984	-0.5220475601169051	0.0	-7.399731016939074e-05	-0.4336696220259568	0.0	0.03999969959379293	-0.4989569995028037	0.0	0.013856559400875514	-0.674319824294802	0.0	0.04859385785101705	-0.5436064419043569	0.0	-0.017855765586571173	-0.7623115105810419	0.0	-0.0037110550347459327	-0.5027875362293167	0.0	0.0003534704128093746	-0.4334502664208527	0.0	0.03862353900781972	-0.4968995497607798	0.0	0.019460767629738567	-0.7762357124202286	0.0	0.018330414184819004	-0.6745477602081454	0.0	-0.021714660491343806	-0.6748488010872775	0.0	-0.014604329514570073	-0.28439201840811057	0.0	-0.004089382265580354	-0.23241449964287508	0.0	0.0019683422694582522	-0.26955877239633724	0.0	-0.0023802135170014863	-0.33190402822239123	0.0	0.0005920855349278218	-0.43812297788257504	0.0	0.03495388988387555	-0.5024682380170583	0.0	-0.010946670182081524	-0.33574084593240644	0.0	0.0007895520933814516	-0.43928092646175343	0.0	0.033715716473914255	-0.5020519533369483	0.0
